<?xml version="1.0" encoding="UTF-8"?>
<svg id="_レイヤー_1" data-name="レイヤー 1" xmlns="http://www.w3.org/2000/svg" xmlns:xlink="http://www.w3.org/1999/xlink" viewBox="0 0 283.46 283.46">
  <defs>
    <style>
      .cls-1 {
        font-size: 71.07px;
        letter-spacing: .13em;
      }

      .cls-1, .cls-2, .cls-3 {
        fill: #efe4d6;
      }

      .cls-1, .cls-3 {
        font-family: Duper-Ita, Duper;
        font-style: italic;
        stroke: #efe4d6;
        stroke-miterlimit: 10;
      }

      .cls-4 {
        fill: none;
      }

      .cls-4, .cls-2 {
        stroke-width: 0px;
      }

      .cls-5 {
        clip-path: url(#clippath);
      }

      .cls-3 {
        font-size: 22.54px;
      }
    </style>
    <clipPath id="clippath">
      <circle class="cls-4" cx="141.73" cy="141.73" r="121.59"/>
    </clipPath>
  </defs>
  <g class="cls-5">
    <path class="cls-2" d="M101.96,83.75c-2.44.15-4.48-2.51-4.03-4.94.56-2.98,3.86-4.65,6.65-4.7,1.28-.02,2.59-1.13,2.5-2.5-.39-5.64,2.21-11.32,6.79-14.67s10.44-3.78,15.6-1.66c2.91,1.2,5.52,3.24,7.27,5.86.81,1.22,2.12,1.47,3.42.9,3.66-1.62,8.08-2.86,12.02-1.51,2.78.95,5.32,3.43,5.37,6.5.02.99.76,2.25,1.84,2.41,4.48.66,8.66,2.93,11.39,6.59,1.13,1.51,2,3.21,2.1,4.93.06.97.08,1.45-.27,2.32-.14.34-.48.77-.77.89-1.25.51-2.13,1.66-1.75,3.08.33,1.19,1.82,2.26,3.08,1.75,5.8-2.35,5.61-9.6,2.76-14.25-3.28-5.36-8.98-9.21-15.21-10.12l1.84,2.41c-.08-5.14-3.76-9.25-8.38-11.08-5.42-2.15-11.45-.48-16.54,1.77l3.42.9c-4.02-6.02-11.01-9.68-18.26-9.64s-14.24,4.32-17.91,10.76c-2.04,3.58-3.1,7.75-2.82,11.88l2.5-2.5c-5.23.08-10.74,3.54-11.58,9.01s3.4,10.96,8.96,10.62c3.2-.19,3.22-5.19,0-5h0Z"/>
    <path class="cls-2" d="M67.55,110.02c8.82,7.41,19.72,10.55,30.92,12.31,11.87,1.86,23.95,2.86,35.97,2.88,23.56.04,47.33-4.51,67.38-17.4,2.94-1.89,1.23-6.56-2.07-4.44-18.78,12.07-40.9,16.29-62.97,16.44-11.05.08-22.1-.83-33.03-2.35s-22.91-4.07-31.89-11.61c-2.43-2.04-6.72,2.15-4.32,4.17h0Z"/>
    <path class="cls-2" d="M81.1,190.3c14.37,15.56,35.99,19.62,56.34,18.42,20.06-1.18,43.62-4.23,59.25-18,3.78-3.33-.7-7.91-4.45-4.6-13.87,12.22-36.19,14.38-53.88,15.42-18.64,1.1-38.34-2.53-51.51-16.79-2.86-3.1-8.63,2.44-5.75,5.56h0Z"/>
    <path class="cls-2" d="M57.79,188.67c-8.39,10.15-.97,23.05,9.13,28.27,13.39,6.91,30.02,8.47,44.83,8.93,16.29.5,32.54-1.05,48.74-2.51,14.89-1.34,31.25-1.06,45.55-5.83,11.72-3.92,25.59-16.25,19.01-29.87-1.94-4.02-8.51.45-6.73,4.13,3.2,6.62-1.74,13.18-7.41,16.43-6.61,3.79-14.49,4.73-21.94,5.47-16.21,1.61-32.46,3.12-48.71,4.26s-32.44,1.47-48.42-1.44c-7.43-1.35-15.35-3.07-21.93-6.91-6.02-3.51-11.68-11.47-6.3-17.97,3.33-4.03-2.89-6.5-5.82-2.96h0Z"/>
    <path class="cls-2" d="M208.62,116.31c4.08-5.17,9.68-11.15,16.65-6.65s6.55,14.01,3.87,20.86c-4.99,12.73-15.31,25.47-26.82,32.81-3.54,2.25-1.2,7.87,2.65,5.42,8.43-5.38,15.23-12.61,20.97-20.75,5.72-8.11,11.72-17.51,11.57-27.8-.12-8.42-5.04-16.76-13.79-18.42s-15.43,5.37-20.42,11.69c-2.82,3.57,2.75,6.09,5.32,2.83h0Z"/>
    <text class="cls-1" transform="translate(72.7 174.95)"><tspan x="0" y="0">Huu</tspan></text>
    <text class="cls-3" transform="translate(74.73 104.59) rotate(26.96)"><tspan x="0" y="0"> </tspan></text>
    <text class="cls-3" transform="translate(81.5 107.92) rotate(16.07)"><tspan x="0" y="0">C</tspan></text>
    <text class="cls-3" transform="translate(94.65 111.36) rotate(8.63)"><tspan x="0" y="0">a</tspan></text>
    <text class="cls-3" transform="translate(106.84 113.11) rotate(6.3)"><tspan x="0" y="0">f</tspan></text>
    <text class="cls-3" transform="translate(115.06 114.01) rotate(4.26)"><tspan x="0" y="0">e</tspan></text>
    <text class="cls-3" transform="translate(125.63 114.72) rotate(2.21)"><tspan x="0" y="0"> </tspan></text>
    <text class="cls-3" transform="translate(131.75 114.97) rotate(-.21)"><tspan x="0" y="0">S</tspan></text>
    <text class="cls-3" transform="translate(143.21 114.84) rotate(-3.47)"><tspan x="0" y="0">t</tspan></text>
    <text class="cls-3" transform="translate(152.39 114.27) rotate(-7.46)"><tspan x="0" y="0">a</tspan></text>
    <text class="cls-3" transform="translate(165.12 112.5) rotate(-13.07)"><tspan x="0" y="0">n</tspan></text>
    <text class="cls-3" transform="translate(178.11 109.33) rotate(-19.73)"><tspan x="0" y="0">d</tspan></text>
    <text/>
    <text/>
    <rect class="cls-4" x="18.17" y="16.91" width="247" height="247"/>
  </g>
</svg>